# xmcd
#
# Track frame offsets: 
#        182
#        50325
#        91125
#        110700
#        151275
#        173700
#        198300
#        224250
#
# Disc length: 4061 seconds
#
# Revision: 12
# Processed by: cddbd v1.5.2PL0 Copyright (c) Steve Scherf et al.
# Submitted via: ExactAudioCopy v0.99pb5
#
DISCID=650fdb08
DTITLE=The Borodin Trio - Beethoven - Ten Trios for Piano, Violin and Ce
DTITLE=llo - Volume 2
DYEAR=1984
DGENRE=Classical
TTITLE0=01. Piano Trio in C minor Op. 1 No. 3 - 1. Allegro con brio
TTITLE1=02. Piano Trio in C minor Op. 1 No. 3 - 2. Andante cantabile c
TTITLE1=on variazioni
TTITLE2=03. Piano Trio in C minor Op. 1 No. 3 - 3. Menuetto, quasi all
TTITLE2=egro
TTITLE3=04. Piano Trio in C minor Op. 1 No. 3 - 4. Finale, prestissimo
TTITLE4=05. Piano Trio in E flat major WoO 39 - 1. Allegro moderato
TTITLE5=06. Piano Trio in E flat major WoO 39 - 2. Scherzo, allegro ma
TTITLE5=non troppo
TTITLE6=07. Piano Trio in E flat major WoO 39 - 3. Rondo, allegretto
TTITLE7=08. Variations in G major Op. 121a on ''Ich bin der Schneider 
TTITLE7=Kakadu'' by Wenzel Muller
EXTD=YEAR: 1984
EXTT0=
EXTT1=
EXTT2=
EXTT3=
EXTT4=
EXTT5=
EXTT6=
EXTT7=
PLAYORDER=
